<?xml version="1.0" encoding="UTF-8"?>
<svg version="1.1" viewBox="0 0 2048 1536" xmlns="http://www.w3.org/2000/svg">
<path transform="translate(817,76)" d="m0 0h20l6 3 3 4 3 10 8 10 11 13 12 14 11 13 9 10 18 11 17 14 9 7 34 28 10 8 22 18 5 5 9 11 9 9-1 5-5 1-7-6-7-2 7 8 11 11 2 1v-6l5-4 4 2 9 20 12 25v2l-16-4 1 3 10 4 2 2 1 6 5-3h2l4 12 6 12 6 7 5 4 1 4-4 4-4-2-5-5-9-4h-3l5 5 6 5 2 9 3 4-4 6-1 3h9l5-5 5-10 4 2 11 14 11 18 5 5 8 4 4 5 7 16 5 4 6 4 5 8 4 13 7 3 4 8 9 11 1 9-5 5 4 2 6 15 1 8-2 2-8 1v-7l-1-4-3 2-1 5 3 6-1 9-3 1-8-6-4-2h-7l-5 4-1 4 5-2 5-4 5 1 11 14 8 3h14l6-2-2-9 10-5 5-1 7 3 5 5 3 6 6 25 2 11v5l-5-1-6-9-1-2v7l3 9 10 2 3 5 6 27 9 33 1 6v8l-5 8-3-3-9-27v17l5 5 5 8 6 1 5-8 3 2 6 19 9 12 2 7 5-3h2l1 7 8-1 2 5-2 9 4 6 7 6-1 4-3 4v8l4 10 5 5h9l3 4 5 10 14 14 5 8 1 9-6 3-5-1-7-7-7-8-3-2h-7l-4 5-1 5h7l4-3h6l7 8 4 6 8 8 4 7v6l2-4 4 2 7 6 7 14 1 4v7l-1 5 1 1v6l-4 4 2 5 3 4v6l-1 2h2l2-5 4 4 3 12 4-15 4-3 3 4 4 13 6 14 6 21v30l-1 55 4 17v15l-4 18-12 42-2 8-1 13-7 17-4 9-7 12 1 5 1 3-7 16-16 25-14 22-15 15-15 10-16 8-11 8-14 11-15 12-14 11-15 11-12 6-30 11-12 4-2-6h-3l-2 8-4 3-19 9-41 10-22 6-19 5-5 5-2 3-11-1-12 6-21 16-8 8h-20l-12 6-9 6-10-2-8-4h-10l-7 1h-9l-6-2-5-8h-3l-1 2h-10l-11-2-3-3-9 1-3-4-23-8-8-2-7-6-6 1-8-7-14-14v-2h-2l-7-8-7-7-15-30-8-18-2-11-5-19-8-20-4-16-5-6v-2l4-2-2-16-7-20-16-41-13-34-4-17-2-12v-32l4-9-1-9-15-55v-6h3l7 14 2 9 3-3 1-2v-9l-2-8-11-3 1-5 2-6-2-18-14-102-2-9 1-5 3-1 3-15-2-7-3-8-1-18-8-39-6-19-4-16-5-15-7-32-1-12 3-4v-12l-2-19 7-5 6-10 6-16 9-15h2l-3 10-7 14-1 5 10 3 1 4-7 15-4 2v12l-6 22 1 9 7 9-2 6-4 8 8 7 13 2 7-2 3-2-1-7-6-10-6-7 11-22v-6l-3-6-1-16-3-6 3-9 4-6 5-26 3-30 2-7 4-4 1-3v-11l2-13 6-7 7-5 4-8 7-19 2-21v-15l-7-18 1-17v-15l-2-10-2-5v-4l12-5 11-10 9-7 9-5 4-4 7-18 5-18 8-21 3-12 2-29-7-1-9-6-3-4-4-17 2-5 4-4 16-6 9-2 9-11 6-4h4l-5-9-8-8-21-13-10-6-5-6 1-2h12l12 5 19 11 22 6 10 9 4 4-2 6v5l2 3h7l15-4 25-10 3-1 13 1 18 5 20 9 9 2-11-8-12-7-11-3-10-7h-10v2l-6 1-3-3h-14l-5-3-10-9-11-9-14-9-24-11-5-1 2 7 6 6v6l-3 3-6-2-11-7-5-4 3 3v2h-8l-10-4-16-9-13-10-13-6h-6l-3-5-4-12-8-11 5-5 8-6 10-9 5-2 17 1h25l7 1 1 1 1 12 15 5 4 3 9-1 6 4 9 9 7 8 12 13 7 8 8 7 17 9-5-5-16-13-12-11-9-11-13-14-12-6-21-6-5-4 1-7 6-3zm-26 70 2 3 2-1z" fill="#828282"/>
<path transform="translate(1071,378)" d="m0 0 5 1 5 5-4 6-1 3h9l5-5 5-10 4 2 11 14 11 18 5 5 8 4 4 5 7 16 5 4 6 4 5 8 4 13 7 3 4 8 9 11 1 9-5 5 4 2 6 15 1 8-2 2-8 1v-7l-1-4-3 2-1 5 3 6-1 9-3 1-8-6-4-2h-7l-5 4-1 4 5-2 5-4 5 1 11 14 8 3h14l6-2-2-9 10-5 5-1 7 3 5 5 3 6 6 25 2 11v5l-5-1-6-9-1-2v7l3 9 10 2 3 5 6 27 9 33 1 6v8l-5 8-3-3-9-27v17l5 5 5 8 6 1 5-8 3 2 6 19 9 12 2 7 5-3h2l1 7 8-1 2 5-2 9 4 6 7 6-1 4-3 4v8l4 10 5 5h9l3 4 5 10 14 14 5 8 1 9-6 3-5-1-7-7-7-8-3-2h-7l-4 5-1 5h7l4-3h6l7 8 4 6 8 8 4 7v6l2-4 4 2 7 6 7 14 1 4v7l-1 5 1 1v6l-4 4 2 5 3 4v6l-1 2h2l2-5 4 4 3 12 4-15 4-3 3 4 4 13 6 14 6 21v30l-1 55 4 17v15l-4 18-12 42-2 8-1 13-7 17-4 9-7 12 1 5 1 3-7 16-16 25-14 22-15 15-15 10-16 8-11 8-14 11-15 12-14 11-15 11-12 6-30 11-12 4-2-6h-3l-2 8-4 3-19 9-41 10-22 6-19 5-5 5-2 3-11-1-12 6-21 16-8 8h-20l-12 6-9 6-10-2-8-4h-10l-7 1h-9l-6-2-5-8h-3l-1 2h-10l-11-2-3-3-9 1-3-4-23-8-8-2-7-6-6 1-8-7-14-14v-2h-2l-7-8-7-7-15-30-8-18-2-11-5-19-8-20-4-16-5-6v-2l4-2-2-16-7-20-16-41-13-34-4-17-2-12v-32l4-9-1-9-15-55v-6h3l7 14 2 9 3-3 1-2v-9l-2-8-11-3 1-5 2-6h2l-1-14 10-2h11l7 1 6-1h7l12-7 6-4 6-1 12 6 5-1 17-8 6-1 9 11 9 10 3 3-1 5-3 12-7 7-3 2-1 3v7l3 7 3 1h12v-2l-14-1-3-7 1-7 9-6 5-17 4-6 10-9 13-8 8-3 15-3 4-3 1-15 5-5 2-1h8l7 8 8 16 13 13 1 7 11 7 4 4v11l4 6 3 4-1 7-7 4-8 4-3 2-10 2-3 2 1 6 5 10v16l-4 7-8 6-1 2h2l1 2 1 23 6 4 10 5 6 7v8l-3 12v10l6 3 32 6 14 2 10-1 13-1 3 1 15-3 14-7 8-3 5-3v-5l-3-5 3-3-1-6-5-9-4-5-10-6 1-2 14-2 4-5 3-8 12-6 12-4 8-13 9-19 1-11v-9l-3-15 1-5 14-7 6-6v-13l-5-23-3-27-3-49v-8l2-12 3-3 3 5 7 19 7 12 7-1 12-6 9-7 9-5 5-1 9 2 4 5 1 4v9l-5 20v12l5 21 3 6 11 4 5 8 8 21 1 1h7l5-3h2v-29l10-1 6-4 4-8v-13l8-1 2-6 10-6 6-2h4v7l4 17 4 23 4 7 6 8 7 16 1 5-9 9-5 10v7l7 15 13 6 15 6 6 4-5-5-26-11-5-8-3-7v-8l5-8 9-9v-5l-4-6-7-16-7-8-2-6-6-35 1-8-2-1-9 1-12 6-4 6-7 2-1 6v10l-7 8-3 1h-10v28l-5 4h-6l-11-26-4-4-9-3-5-10-4-17v-8l5-22v-12l-2-8-16-2-14 7-13 9-10 4-6-9-6-14-4-11-4-4 1-11v-9l-2-14 2-1 16-2h10l10 5 13 10 16 6 9 4h5l5-11 1-5v-23l-2-12v-21l2-16 4-8 6-4 3-1h16l8 1-5-17-5-12-1-17v-68h-11l-5 4-7 12-7 16-2 3h-4v-23l-5-2-9-4-10-5-25-6-11-2-15-1-3-5-2-5-5-4-11-8-2-4 8-28 4-6 6-4 1-2v-7l-8-11-9-17-6-11-4-8-4-6 3-10 2-4-1-8-7-18-1-12 9-15v-6l-7-8-10-9-12-7-7-2h-16v-5l5-4 12-5 21-5z" fill="#828282"/>
<path transform="translate(1025,403)" d="m0 0h11l16 8 11 9 7 8v7l-8 12-1 6 4 16 5 11v8l-3 7-1 6 5 10 10 19 11 19 5 7-1 5-7 7h-2l-3 9-7 26 1 3 16 10 3 5 2 7 23 2 30 7 22 11 2 4-1 15-4 6 11-1 4-7 7-18 10-11 8-1 1 7v71l2 10 7 19v5h-23l-8 5-3 4-2 11-2 19v9l2 9 1 10v11l-1 11-6 12-13-5-15-6-11-9-8-4-5-2-9 1-29 3-5 1h-20l-3 1-1 8-3 1-3-5-4 1-9 6-6 2-7-1-3-6-3-19-2-10 3-7 8-2 4-10 4-16 3-17 6-8 4-4 1-3-5-2-9-3-5 1-5 4-5-12-5-4-9 2-10 6-8 8-8 2-3 13-5 7-4 8-5 5-3 2-6-1-4-1-3 1-2 4-8 5-13 6h-3l-3-7-2-16-6-21-3-2-9-2-1-30-6-3-8-3-14-11-10-6-27-11-24-10-17-8-8-6-5-4-16-5h-12l-3-9-8-31-4-9 1-6 5-5 12-13 7-10 3-9 1-10 2-1 1-8v-42l10 2 4 1h17l28-7h3l4 15 3 5 8 4 8 15 6 5 6 3 4-2 5-7 7-6 7-14 8-11 4-5 9-6 19 9 7-2 12-9 13-13 8-11 9-9 1-5-3-7-7-8-6-4-1-4 24-4 15-7 9-3 9-2z" fill="#828282"/>
<path transform="translate(720,526)" d="m0 0 18 4 14 4 12 6 2 2v9l-3 9-7 9-12 13-5 6-2 3 1 6 4 9 10 37 1 2 15 1 14 5 10 8 16 8 23 10 28 11 9 5 10 8 9 6 11 4 1 1 1 7 1 23 10 3 3 5 5 17 2 17 4 6 3 13 6 7 5 11 6 22 4 15 3 4v11l-6 9v7l3 8 3 5v10l-6 8-3 1-1 3 3 1-1 5-8 2-3 3-1 4-7-1-9-2-1 8-3 8-9 1-8-11-3-2h-10l-6 4-2 6-1 12-6 3-15 3-9 4-11 7-7 6-6 1-5-4-9-11-3-5-5-1-10 3-11 6h-5l-7-4-7-1-9 3-10 7-3 2h-19l-1-1-11 1h-11l-1-2-4-31-5-37-3-24-1-4v-17l2-3 1-15-2-7-3-8-1-18-8-39-6-19-4-16-5-15-7-32-1-12 3-4v-12l-2-19 7-5 6-10 6-16 9-15h2l-3 10-7 14-1 5 10 3 1 4-7 15-4 2v12l-6 22 1 9 7 9-2 6-4 8 8 7 13 2 7-2 3-2-1-7-6-10-6-7 11-22v-6l-3-6-1-16-3-6 3-9 4-6 5-26 3-30 2-7 4-4 2-11 1-11 3-6 5-4z" fill="#828282"/>
<path transform="translate(1014,724)" d="m0 0h5l5 6 3 8 5 2 3-5 9 1 5 3-3 5-5 7-3 14-3 15-3 10-4 6h-6l-3 6v8l2 6 3 20 2 4 5 2h7l11-6 4-2 4 5h4l1-2 1-9h22l5-1h8l2 7v24l-3 11-1 6v13l2 39 3 32 3 16 3 14v6l-4 6-5 4-13 7 4 23-2 18-8 15-6 12-5 4-15 5-6 4-6 12-6 2-11 1 4 6 9 7 6 9 1 7-3 3 1 4 2 5-4 3-12 5-11 5-8 2h-16l-4 1h-16l-34-6-10-3-1-1v-9l2-10v-12l-6-7-14-6-2-7v-18l-2-2 9-8 2-4v-7l1-6-2-8-4-9v-4l15-4 6-4 8-4 3-4v-6l-8-10 1-10-3-3v-2l-5-2-8-6v-6l-14-13-4-7v-2l11-1 3-11 2-5 11 3 5 1 1-9 7-1h5v-7l-3-1 6-7 3-6v-8l-6-12-1-7 7-12v-8l-3-6-3-8-6-24-4-12-4-8-5-3-1-4v-7l8-5 13-7 7-6 3 2h9l2-4 4-5h2l2-6 5-9 2-11 8-1 9-9 9-6z" fill="#828282"/>
<path transform="translate(793,263)" d="m0 0 2 4-1 23-4 16-10 28-5 17-5 12-9 7-8 4-13 12h-2v2l-10 5h-2l2 7 1 9v32l4 13 3 8v11l-2 23-7 21-1 6 7 3 19 5 12 6h4l2-10-1-21-1-19h3l15 5h15l26-6 9-2 3 17 2 4 9 5 3 3 4 10 5 5 5 3 4-2 9-10 5-8 5-10 9-11 7-7 5-2 7 1 12 7h5l13-10 7-6 11-14 9-10 3-4-1-7-6-7-9-5-1-8 3-1 13-1 9-1 16-8 15-4 1-7 6-5 9-4 25-6 14-5v-4l-12-12v-3l9 1 4 2 5-1-8-16-4-9h-7l1-4 2 2 4-3h2l4 12 6 12 6 7 5 4 1 4-4 4-4-2-5-5-9-4h-3l5 5 6 5 1 2v7l-6-1-16 6-18 4-12 5-4 3v4h15l11 4 13 9 12 12 1 2v6l-9 15 1 12 8 21-1 7-4 10 2 5 5 8 4 9 7 12 6 12 7 9v7l-10 10-5 15-4 17 10 8 6 4 3 3 3 8 21 2 27 6 9 4 18 9 1 4v16l-1 3 4-1 7-15 6-12 6-7 2-1h11l1 4v70l1 12 8 21 1 8h-24l-8 4-4 8-2 16v21l2 12v23l-3 10-4 7-8-1-18-8-7-3-13-10-7-3h-10l-16 2-1 1 2 13v9l-1 11 5 6 7 19 6 11 2 1 14-7 10-7 12-6 14 2 3 3 2 6v12l-5 22v8l5 20 3 6 10 4 5 6 9 22v2l8-2 2-2 1-28 13-2 6-7v-14l2-3 7-1 2-5 5-4 12-5h6l3 2-1 8 6 35 3 7 6 7 8 18 3 4v5l-11 11-3 6v8l7 14 28 12 3 3v2l-4-2-14-6-12-5-5-3-7-15v-7l5-10 9-9-1-5-8-18-8-10-3-13-4-22-2-8 1-7-12 4-6 4h-2l-2 6-8 1 1 13-4 8-5 4-2 1h-10l1 27-4 4-4 2h-7l-3-5-8-20-3-5-11-4-5-10-4-18v-12l5-20v-9l-3-7-4-2-7-1-8 3-21 14-8 3-5-1-8-14-7-20-2-1-2 7-1 7 1 24 3 44 3 21 4 18v13l-7 7-14 7 1 8 2 11v9l-1 11-11 23-7 10-17 6-5 3h-2l-3 10-4 4-14 2 11 8 6 9 3 7-1 4h-2l1 5 2 2v5l-10 6-11 4-7 4-17 3-4-1-20 2-37-6-12-3-4-3v-10l3-12v-8l-6-7-14-7-2-2-1-25h-2l2-4 5-4h2l2-5 1-2v-16l-6-13 1-4 3-2 12-3 6-4 7-3 3-1v-7l-6-8-1-2v-11l-7-6-8-5-1-7-12-12-4-6-7-14-4-4h-8l-5 3-1 2-1 15-5 4-19 4-11 6-13 10-5 6-4 11-2 8-9 6-1 7 2 6 12 1 2 1v2l-13 1-3-2-3-7v-7l3-5 8-7 3-12 1-5-10-10-10-13-8 2-17 8-5-1-10-5-6 1-11 7-7 4h-10l-8 1-2-1h-11l-10 1 1 6v8l-2-4-16-116-2-9 1-5 3-1 2-9h1v9l-2 3v17l2 12 2 16 6 45 3 23v2l16-2h6l1 1h19l10-7 7-4 7-1 9 3 3 2 7-1 14-7 8-1 5 5 6 8 5 6 3 2 6-1 14-11 10-5 11-3 10-2 2-1 2-16 4-5 4-2h10l5 4 6 9 9-1 4-15 3-1 13 4 1-6 5-3h6v-5l-2-1 1-4 5-3 3-5v-10l-5-9-1-4v-7l6-9v-11l-4-6-6-25-5-15-4-8-5-5-3-13-4-6-2-17-6-19-3-3-9-3-1-23-1-7-13-5-9-7-11-8-21-9-27-11-20-9-13-9-4-3-12-4-15-1-3-7-9-33-5-12 1-4 4-6 10-10 9-11 4-8 1-4v-9l-8-5-14-5-21-5-6 2-1 3-5 4-2 5-1 11-2-3 2-13 6-7 7-5 4-8 7-19 2-21v-15l-7-18 1-17v-15l-2-10-2-5v-4l12-5 11-10 9-7 9-5 4-4 7-18 5-18 8-21 3-12zm232 140-6 2-10 2-13 5-8 4-24 4 1 4 9 7 6 8 1 7-7 8-8 9-6 8-12 12-11 8-6 1-16-8-3-1-6 4-5 5-7 8-8 14-3 6-6 5-7 9-6-2-6-4-4-5-6-12-9-5-4-10-2-9-10 2-21 5h-17l-11-3h-3v42l-1 8-2 1-2 14-5 10-9 10-7 8-5 5-1 6 4 9 8 31 3 9h12l18 6 8 7 16 8 20 9 20 8 19 8 22 16 11 4 1 1 1 30 11 3 3 8 5 19 2 15 2 3 5-1 17-8 4-4v-2l6-1 4 2 5-1 4-5 3-3 5-9 4-7 2-10 8-2 8-8 10-6 9-2 5 4 5 12 6-5 6 1 12 4-3 5-6 7-3 6-3 18-4 16-3 6-8 2-3 9 6 30 2 3 7 1 9-4 7-5h3l3 5 3-1 1-8 9-1h14l12-2 22-2 9-1 10 4 9 7 5 4 27 11 3-3 4-9 1-11v-11l-2-14-1-5v-9l3-27 3-6 5-4 4-2h23l-1-8-7-19-1-7v-71l-1-7-8 1-7 7-4 7-7 18-3 4-11 1 4-6 1-15-3-5-9-4-15-7-27-6-23-2-3-10-10-7-9-6 4-16 4-15 2-6 4-2 6-6-1-6-7-10-14-25-9-18 2-8 2-5v-8l-5-11-4-17 2-6 7-11v-7l-10-11-13-9-11-5zm-11 321-8 4-12 11-6 2h-3l-3 13-6 11v2l-3 1-5 6v2h-9l-3-2-10 8-17 9-1 1v7l2 5 4 2 6 13 7 27 3 11 3 4 1 3v8l-7 12 2 9 5 10v8l-5 9-4 5h3v7h-9l-3 1-1 9-10-2-6-2-3 8-2 8-11 1 2 6 9 10 7 6v6l8 6 5 2 2 4 1 1v5l-1 5 8 10v6l-4 5-12 6-3 2-13 3 1 6 4 9 1 7-1 8-1 6-6 7-4 4 2 1v18l2 7 14 6 6 7v12l-2 10v9l6 3 32 6 7 1h16l9-1h11l11-3 14-7 9-4 1-3-3-4 1-4 2-2-1-7-6-9-11-9-2-4 16-2 3-4 5-10 10-5 12-4 4-5 8-16 5-9 1-12 1-6-4-23 15-8 6-7 1-2-1-12-4-18-3-24-2-30-1-23v-13l3-13 1-4v-24l-2-7h-8l-5 1h-22l-1 9-1 2-5-1-3-4-4 2-11 6h-7l-6-3-3-16-2-11-1-2v-8l3-6h6l5-8 4-16 3-17 3-7 6-8-3-3-5-2h-6l-3 5-5-2-4-10-4-4z" fill="#E2E2E2"/>
<path transform="translate(793,263)" d="m0 0 2 4-1 23-4 16-10 28-5 17-5 12-9 7-8 4-13 12h-2v2l-10 5h-2l2 7 1 9v32l4 13 3 8v11l-2 23-7 21-1 6 7 3 19 5 12 6h4l2-10-1-21-1-19h3l15 5h15l26-6 9-2 3 17 2 4 9 5 3 3 4 10 5 5 5 3 4-2 9-10 5-8 5-10 9-11 7-7 5-2 7 1 12 7h5l13-10 7-6 11-14 9-10 3-4-1-7-6-7-9-5-1-8 3-1 13-1 9-1 16-8 15-4 1-7 6-5 9-4 25-6 14-5v-4l-12-12v-3l9 1 4 2 5-1-8-16-4-9h-7l1-4 2 2 4-3h2l4 12 6 12 6 7 5 4 1 4-4 4-4-2-5-5-9-4h-3l5 5 6 5 1 2v7l-6-1-16 6-18 4-12 5-4 3v4h15l11 4 13 9 12 12 1 2v6l-9 15 1 12 8 21-1 7-4 10 2 5 5 8 4 9 7 12 6 12 7 9v7l-10 10-5 15-4 17 10 8 6 4 3 3 3 8 21 2 27 6 9 4 18 9 1 4v16l-1 3 4-1 7-15 6-12 6-7 2-1h11l1 4v70l1 12 8 21 1 8h-24l-8 4-4 8-2 16v21l2 12v23l-3 10-4 7-8-1-18-8-4-2 4-1 13 5 11 4 5-11 1-11v-11l-2-14-1-5v-9l3-27 3-6 6-5 4-2h16l7 1-4-14-5-13-1-7v-78l-9 3-8 9-8 21-4 5h-11l2-4 2-10v-7l-2-4-9-4-15-7-27-6-21-2-3-3-4-9-11-7-7-5 4-16 4-15 3-6 8-7 1-5-10-15-12-22-9-18 2-8 2-5v-8l-5-11-4-17 2-6 7-11v-7l-9-10-13-9-11-5h-11l-6 2-10 2-13 5-8 4-20 3h-4l3 5 6 4 7 8 2 9-7 8-8 9-6 8-13 13-11 8-6 1-16-8-3-1-6 4-3 1-2 4-7 9-7 12-3 6-4 2-1 3h-2l-2 4-5 6-6-2-6-4-5-6-6-12-8-4-3-5-2-6-1-9-26 7-5 1h-17l-11-3-3-1 1 14v28l-1 8-3 1v10l-4 11-7 9-7 7-5 6-4 4-1 6 4 9 8 31 2 8h12l18 6 8 7 16 8 20 9 20 8 19 8 11 8 2 3-3 1-12-9-21-9-27-11-20-9-13-9-4-3-12-4-15-1-3-7-9-33-5-12 1-4 4-6 10-10 9-11 4-8 1-4v-9l-8-5-14-5-21-5-6 2-1 3-5 4-2 5-1 11-2-3 2-13 6-7 7-5 4-8 7-19 2-21v-15l-7-18 1-17v-15l-2-10-2-5v-4l12-5 11-10 9-7 9-5 4-4 7-18 5-18 8-21 3-12z" fill="#CECECE"/>
<path transform="translate(817,76)" d="m0 0h20l6 3 3 4 3 10 8 10 11 13 12 14 11 13 9 10 18 11 17 14 9 7 34 28 10 8 22 18 5 5 9 11 9 9-1 5-5 1-7-6-7-2 7 8 11 11 2 1v-6l5-4 4 2 9 20 12 25v2l-16-4 2-2h6l1-4-4-10-9-17-3-8v-2h-2v3l-3 1 4 6v3l-5-1-10-9-10-8-3-4 1-5 4-1 8 4-3-5-3-7-14-14-14-11-11-9-11-8-13-10-6-4-3-5-13-11-16-12-5-2-1-2-1 4-8-1-17-8-11-7-10-9-3-3v-2h-2l-7-8-10-11-7-8-5-5-9-1-5-1-5-3-12-3-2-2-1-8v-5h-28l-19-1-7 3-10 9-2-1 8-8 7-5 6-1 14 1h25l7 1 1 1 1 12 15 5 4 3 9-1 6 4 9 9 7 8 12 13 7 8 8 7 17 9-5-5-16-13-12-11-9-11-13-14-12-6-21-6-5-4 1-7 6-3z" fill="#E9E9E9"/>
<path transform="translate(681,854)" d="m0 0h1v9l-2 3v17l2 12 2 16 6 45 3 23v2l16-2h6l1 1h19l10-7 7-4 7-1 9 3 3 2 7-1 14-7 8-1 5 5 6 8 5 6 3 2 6-1 14-11 10-5 11-3 10-2 2-1 2-16 4-5 4-2h10l5 4 6 9 9-1 4-15 3-1 13 4 1-6 5-3h6l1-5h3v7l-5 1h-7l-1 9h-7l-9-3-5 15-4 1h-7l6 10 13 12v6l10 7 6 6v5l-1 5 8 10v6l-5 6-12 6-3 2-13 2 5 13 2 9-1 8-1 6-7 8-3 2 2 2v18l1 6 14 6 7 8v12l-2 10v9l10 3 34 6h16l9-1h11l11-3 14-7 9-4-2-5-1-4 3-3-1-7-6-9-11-9-1-4 2-1 14-2 7-13 8-5 15-5 6-9 10-20 1-12 1-6-4-23 6-4 10-5 5-6 1-2-1-12-4-18-3-24-2-30-1-23v-13l1-6 3 1-1 17 3 49 3 27 5 23v13l-7 7-14 7 1 8 2 11v9l-1 11-11 23-7 10-17 6-5 3h-2l-3 10-4 4-14 2 11 8 6 9 3 7-1 4h-2l1 5 2 2v5l-10 6-11 4-7 4-17 3-4-1-20 2-37-6-12-3-4-3v-10l3-12v-8l-6-7-14-7-2-2-1-25h-2l2-4 5-4h2l2-5 1-2v-16l-6-13 1-4 3-2 12-3 6-4 7-3 3-1v-7l-6-8-1-2v-11l-7-6-8-5-1-7-12-12-4-6-7-14-4-4h-8l-5 3-1 2-1 15-5 4-19 4-11 6-13 10-5 6-4 11-2 8-9 6-1 7 2 6 12 1 2 1v2l-13 1-3-2-3-7v-7l3-5 8-7 3-12 1-5-10-10-10-13-8 2-17 8-5-1-10-5-6 1-11 7-7 4h-10l-8 1-2-1h-11l-10 1 1 6v8l-2-4-16-116-2-9 1-5 3-1z" fill="#E0E0E0"/>
<path transform="translate(880,699)" d="m0 0 11 7 9 3 2 2v30l9 1 4 3 6 21 3 20 1 3 18-8 6-4 5-5 4 1 6 1 5-5 3-1 2-5 3-6 4-7 2-10 9-3 8-8 10-6 9-2 6 5 4 11 6-5 6 1 9 3 3 2-1 4-7 8-3 6-3 18-4 16-4 7-8 1-2 9 6 30 1 3 3 1-3 1-4-3-3-16-2-11-1-2v-8l4-7h6l4-7 4-16 3-17 3-7 6-8-4-3-9-1-3 5-5-2-2-2-3-9-3-3-8 1-11 8-7 7-5 1-3-1-1 11-6 10-2 5-10 10h-7l-3-2-10 8-17 9v7l1 4 5 3 6 13 7 27 3 11 3 4 1 3v8l-7 12 2 9 5 10v8l-5 9-6 5-2-1 1-4 5-3 3-5v-10l-5-9-1-4v-7l6-9v-11l-4-6-6-25-5-15-4-8-5-5-3-13-4-6-2-17-6-19-3-3-9-3-1-23-1-7-13-5-7-5v-2z" fill="#E2E2E2"/>
<path transform="translate(793,263)" d="m0 0 2 4-1 23-4 16-10 28-5 17-5 12-9 7-8 4-13 12h-2v2l-10 5h-2l2 7 1 9v32l4 13 3 8v11l-2 23-7 21-1 6 7 3 19 5 12 6h4l2-4h1v8l-3 1v10l-4 11-7 9-7 7-5 6-4 4-1 6 4 9 8 31 2 8h12l18 6 8 7 16 8 20 9 20 8 19 8 11 8 2 3-3 1-12-9-21-9-27-11-20-9-13-9-4-3-12-4-15-1-3-7-9-33-5-12 1-4 4-6 10-10 9-11 4-8 1-4v-9l-8-5-14-5-21-5-6 2-1 3-5 4-2 5-1 11-2-3 2-13 6-7 7-5 4-8 7-19 2-21v-15l-7-18 1-17v-15l-2-10-2-5v-4l12-5 11-10 9-7 9-5 4-4 7-18 5-18 8-21 3-12z" fill="#CECECE"/>
<path transform="translate(651,334)" d="m0 0h20l15 4 16 7 11 7 11 11v1h-6l-12-5 10 11 6 9-2 3-8-1-12-11-9-7-10-8-16-7-15-3-4-4 1-5z" fill="#828282"/>
<path transform="translate(814,78)" d="m0 0h23l4 1 4 6 4 10 4 6 6 7v2h2l9 12 9 10 6 8 1 3 2 1 1 3 3 3-5-1-5-4-6-4v-2l-4-2-16-16-7-8-8-10-17-8-16-4-5-4v-5l6-3z" fill="#828282"/>
<path transform="translate(1035,1160)" d="m0 0 4 1 10 6 6 5-2 5-4 4-7 4v3l4 6 6 3 7-1 9-5 6-3h5l-1 5-11 20-6 12-5 15-9 16v10l2 23 3 7 6 8 9 6 6 7 3 5v3l30-15h2l-2-8v-6l2-3h2l-1 6v8h2l-1 4-17 9-13 6h-2l8 15v9l-5 1-14-3-6-3-6-5-19-1-21-6-20-6-7-2-5-13-1-2-16-1v-3h2l-4-12-8 1-12 2-5 5-4-1 5-5 3-2 18-3 5 1 4 9v6h13l4 5 5 11 15 4 24 8 5 1 20 1 4 3v2l5 2 16 4h2v-6l-6-11-9-16-10-8-7-6-4-8-2-12-2-24 12-24 4-13 12-22 3-6-11 6-4 2h-8l-8-5-6-8 2-4 11-7 1-2-4-4-9-5-3-3z" fill="#CFCFCF"/>
<path transform="translate(711,100)" d="m0 0 6 2-1 7-1 8 2 9 4 3h6l2 1 1 7 15 9 1 4-2 3h-8l-7-3-5 1-3 2-7-1-5-4-10-18-3-6 2-4 5-18z" fill="#828282"/>
<path transform="translate(824,1034)" d="m0 0h3l-2 5-9 13-2 5v8l4 19 1 2 9 2 3 3v7l-7 17-6 11 1 5 5 5-1 6-5 4 1 7 4 12 2 10 4 10 10 12 6 13 9 6 8 9 1 8-2 1 1 6 13 18 12 21 7 8 8 4 15 5 17 5-2 2-7-1-29-10-10-8-11 3-18 10 1 7 1 3v11l-5-1-9-8-9-6h-8l-11 4h-4v-2l10-4 5-1h10l11 8 5 4 3 1-3-9v-9l20-11 6-2h4l-6-12-12-19-8-11-2-7 3-2-1-6-10-10-5-3-8-15-8-9-6-15-5-19-2-9 3-1v-2h3l-1-6-5-5 1-7 8-15 5-14-2-4-9-2-2-4-3-14-1-3v-13l5-10 7-8z" fill="#CECECE"/>
<path transform="translate(1185,497)" d="m0 0h1l-1 7-4 3 4 2 6 15 1 8-2 2-8 1v-7l-1-4-3 2-1 5 3 6-1 9-3 1-8-6-4-2h-7l-5 4-1 4 5-2 5-4 5 1 11 14 8 3h14l6-2-2-9 10-5 5-1 7 3 5 5 3 6 6 25 2 11v5l-5-1-6-9-1-2v7l3 9 10 2 3 5 6 27 9 33 1 6v8l-5 8-3-3-9-27v17l5 5 5 8 6 1 5-8 3 2 5 15-1 3-4-10-1-6h-2l-2 5-3 2-6-1-5-4-6-10-2-4v-16l1-2 4 2 4 7 4 12 1 6 2 1-1-10 1-2-1-10-7-25-7-31-5-2-7-2-3-6-2-14 4-1 4 4 3 5v-11l-6-25-4-6-6-4-8 1-5 3 1 9h-2v2l-3 1h-21l-7-4-10-11-3-1-6 4h-6l-2-4 3-5 6-4h7l10 6h3l-2-8v-9l3-3 5 1 2 9h2l1-7-5-15h-8l1-4 8-6z" fill="#D9D9D9"/>
<path transform="translate(1097,618)" d="m0 0h2l3 8 21 2 27 6 9 4 18 9 1 4v16l-1 3 4-1 7-15 6-12 6-7 2-1h11l1 4v70l1 12 8 21 1 8h-24l-8 4-4 8-2 16v21l2 12v23l-3 10-4 7-8-1-18-8-4-2 4-1 13 5 11 4 5-11 1-11v-11l-2-14-1-5v-9l3-27 3-6 6-5 4-2h16l7 1-4-14-5-13-1-7v-78l-9 3-8 9-8 21-4 5h-11l2-4 2-10v-7l-2-4-9-4-15-7-27-6-21-2-3-3-2-6z" fill="#CECECE"/>
<path transform="translate(1357,817)" d="m0 0 5 3 17 34 8 14 6 28v9l-5 6-5-2-5-5v-32l-16-24-6-18 1-2z" fill="#828282"/>
<path transform="translate(681,854)" d="m0 0h1v9l-2 3v17l2 12 2 16 6 45 3 23v2l16-2h6l1 1h19l10-7 7-4 7-1 9 3 3 2 7-1 14-7 8-1 5 5 6 8 5 6 3 2 6-1 14-11 10-5 11-3 10-2 2-1 2-16 4-5 4-2h10v3h-9l-5 3-1 2-1 15-5 4-19 4-11 6-13 10-5 6-4 11-2 8-9 6-1 7 2 6 12 1 2 1v2l-13 1-3-2-3-7v-7l3-5 8-7 3-12 1-5-10-10-10-13-8 2-17 8-5-1-10-5-6 1-11 7-7 4h-10l-8 1-2-1h-11l-10 1 1 6v8l-2-4-16-116-2-9 1-5 3-1z" fill="#CECECE"/>
<path transform="translate(699,1115)" d="m0 0 2 2 3 19 3 13 8 20 5 13 8 20 15 40 2 10v19h2l1 6 4 2 3 1v-2l6 1 5 4 12 6 12 5 12 8 10 2v2h-7l-14-7-6-4-13-5-12-6-1-1h-7l-3-1 3 10 5 9 4 15 5 21 6 15 8 16 8 15 9 10 12 13 10 10v2l10 3-4 3-5-3-18-18v-2h-2l-7-8-7-7-15-30-8-18-2-11-5-19-8-20-4-16-5-6v-2l4-2-2-16-7-20-16-41-13-34-4-17-2-12z" fill="#CFCFCF"/>
<path transform="translate(888,142)" d="m0 0 4 2 7 8 20 13 16 13 9 7 34 28 10 8 22 18 5 5 9 11 9 9-1 5-5 1-7-6-7-2 7 8 11 11 2 1v-6l5-4 4 2 9 20 12 25v2l-16-4 2-2h6l1-4-4-10-9-17-3-8v-2h-2v3l-3 1 4 6v3l-5-1-10-9-10-8-3-4 1-5 4-1 8 4-3-5-3-7-14-14-14-11-11-9-11-8-13-10-6-4-3-5-13-11-16-12-3-2v-2l-6-2-8-5-9-9z" fill="#E2E2E2"/>
<path transform="translate(945,925)" d="m0 0h3v7l-5 1h-7l-1 9h-7l-9-3-5 15-4 1h-7l6 10 13 12v6l10 7 6 6v5l-1 5 8 10v6l-5 6-12 6-3 2-13 2 5 13 2 9-1 8-1 6-7 8-3 2 2 2v18l1 6 4 3-3 1-5-4-1-25h-2l2-4 5-4h2l2-5 1-2v-16l-6-13 1-4 3-2 12-3 6-4 7-3 3-1v-7l-6-8-1-2v-11l-7-6-8-5-1-7-12-12-4-6-7-14-3-3v-2l4 1 7 10 9-1 4-15 3-1 13 4 1-6 5-3h6z" fill="#D9D9D9"/>
<path transform="translate(1262,918)" d="m0 0h6l3 2-1 8 6 35 3 7 6 7 8 18 3 4v5l-11 11-3 6v8l7 14 28 12 3 3v2l-4-2-14-6-12-5-5-3-7-15v-7l5-10 9-9-1-5-8-18-8-10-3-13-4-22-2-8 1-7-12 4-6 4h-2l-2 6-8 1 1 13-4 8-5 4-2 1h-10l1 27-3-2v-27l13-2 6-7v-14l2-3 7-1 2-5 5-4z" fill="#CECECE"/>
<path transform="translate(728,93)" d="m0 0 2 1-3 3-1 6 5 8 5 12v2l9 2 12 6 9 7 14 8 5 3 4 1-3-7v-3l6 1 6 4 11 10 5 3h5v-5l-5-5-1-2v-7l4-1 13 6 16 7 14 9 20 18 4 2 13 1-3 2h-10l-5-3-10-9-11-9-14-9-24-11-5-1 2 7 6 6v6l-3 3-6-2-11-7-5-4 3 3v2h-8l-10-4-16-9-13-10-13-6h-6l-3-5-4-12-8-11 5-5zm63 53 2 3 2-1z" fill="#D6D6D6"/>
<path transform="translate(1317,1064)" d="m0 0 2 3 5 22 1 2 1 19-1 22-2 27-2 25-2 29v16l2 5h2l4 4 19 10 4 2 4-1 4-4-2 5-7 11-1-2 3-5-5-2-21-12-5-4-1-4-5 1-4 3-8 3-17 12-11 7-1 17-3 9-1 2-3-1 3-5 1-5v-14l2-5 9-6 16-11 15-8 3-3 1-5 4-64 2-21 1-39-5-21-1-4z" fill="#CECECE"/>
<path transform="translate(911,481)" d="m0 0h5l1 2-9 3-3 3h-2l-2 4-7 9-7 12-3 6-4 2-1 3h-2l-2 4-5 6-6-2-6-4-5-6-6-12-8-4-3-5-2-6-1-9-26 7-5 1h-17l-11-3-3-1 1 14v28h-2v-15l-2-31h3l15 5h15l26-6 9-2 3 17 2 4 9 5 3 3 4 10 5 5 5 3 4-2 9-10 5-8 5-10 9-11 7-7z" fill="#CECECE"/>
<path transform="translate(961,1291)" d="m0 0 5 1 4 9v6h13l4 5 5 11 15 4 24 8 5 1 20 1 4 3v2l5 2 16 4h2v-6l-6-11-1-5 5-4 24-11 3-1-2-8v-6l2-3h2l-1 6v8h2l-1 4-17 9-13 6h-2l8 15v9l-5 1-14-3-6-3-6-5-19-1-21-6-20-6-7-2-5-13-1-2-16-1v-3h2l-4-12-8 1-12 2-5 5-4-1 5-5 3-2z" fill="#CECECE"/>
<path transform="translate(674,601)" d="m0 0h2l-3 10-7 14-2 6-12 15-2 2v32l-2 11 6 29 4 13 7 23 4 15 3 10 6 33 2 21 4 10v6l-2 2-1-10-3-6-1-4-1-18-8-39-6-19-4-16-5-15-7-32-1-12 3-4v-12l-2-19 7-5 6-10 6-16z" fill="#D1D1D1"/>
<path transform="translate(793,263)" d="m0 0 2 4-1 23-4 16-10 28-5 17-5 12-9 7-8 4-13 12h-2v2l-10 5h-2l2 7 1 9v32l4 13 3 8v11l-2 23-7 21-4 4 3-10 5-14 2-21v-15l-7-18 1-17v-15l-2-10-2-5v-4l12-5 11-10 9-7 9-5 4-4 7-18 5-18 8-21 3-12z" fill="#D7D7D7"/>
<path transform="translate(633,173)" d="m0 0 5 3 5 5 12 3 4 7-1 5-3 3-3 1h-12l-6-3-3-6 1-17z" fill="#828282"/>
<path transform="translate(651,334)" d="m0 0h20l15 4 16 7 11 7 11 11v1h-6l-12-5 10 11 6 9-2 3-8-1-12-11-9-7-10-8-16-7-15-3-4-4 1-5zm2 1-4 4 2 4 8 2 9 2 14 6 15 12 9 7 7 6 5 2-1-4-9-11-6-9 9 2 6 2-6-7-5-4-14-7-11-4-8-2-10-1z" fill="#D4D4D4"/>
<path transform="translate(1357,817)" d="m0 0 5 3 17 34 8 14 6 28v9l-5 6-5-2-5-5v-32l-16-24-6-18 1-2zm2 8v7l4 12 8 14 8 11 1 4 1 32 5 3h3l2-3v-9l-4-20-1-1-2-10-7-10-8-16-5-9-3-1-1-4z" fill="#D4D4D4"/>
<path transform="translate(748,78)" d="m0 0 17 1h25l7 1 1 1 1 12 15 5 4 3 9-1 6 4 9 9 7 8 12 13 7 8 8 7 17 9v2l6 2 6 3-3 1-17-8-11-7-10-9-3-3v-2h-2l-7-8-10-11-7-8-5-5-9-1-5-1-5-3-12-3-2-2-1-8v-5h-28l-19-1-7 3-10 9-2-1 8-8 7-5z" fill="#E2E2E2"/>
<path transform="translate(751,640)" d="m0 0h2l1 3h12l18 6 8 7 16 8 20 9 20 8 19 8 11 8 2 3-3 1-12-9-21-9-27-11-20-9-13-9-4-3-12-4-15-1-2-3z" fill="#CECECE"/>
<path transform="translate(1135,1281)" d="m0 0 12 2 6 3 5 6 9-3 5 2 12 16 2 2 6-1 12-7 17-6 22-8 13-3 4 1-9 3-17 5-27 10-14 8-1 1h-6l-7-6-8-11-3-3-5 2h-7l-7-7-12-3-8 1-6 3-6 5-3-2 4-2 2-5z" fill="#CECECE"/>
<path transform="translate(1174,883)" d="m0 0 2 2 1 4v12l-5 22v8l5 20 3 6 10 4 5 6 9 22v2l8-2 3-3 2-3v7l-7 4h-7l-3-5-8-20-3-5-11-4-5-10-4-18v-12l5-20v-9l-1-6z" fill="#E3E3E3"/>
<path transform="translate(1185,497)" d="m0 0h1l-1 7-4 3 4 2 6 15 1 8-2 2-8 1v-7l-1-4-3 2-1 5 3 6-1 9-3 1-8-6-4-2h-7l-5 4-1 4 5-2 5-4 5 1 8 10-3 1-6-7-3-1-6 4h-6l-2-4 3-5 6-4h7l10 6h3l-2-8v-9l3-3 5 1 2 9h2l1-7-5-15h-8l1-4 8-6z" fill="#D6D6D6"/>
<path transform="translate(1122,821)" d="m0 0 7 1 9 4 8 6 5 4 2 1v2l-5-1-13-10-7-3h-10l-18 2-1 3-1-3-13 2h-16l-6-1v9l-2 3-5-1-3-4-4 2-11 6h-7l-1-2 13-4 8-6 4 1 2 5 2-1 1-8 4-2h20l12-2 22-2z" fill="#DEDEDE"/>
<path transform="translate(912,1113)" d="m0 0h6l8 5 5 6v12l-2 10v9l10 3 34 6h16l9-1h11l8-1 2 2-17 3-4-1-20 2-37-6-12-3-4-3v-10l3-12v-8l-6-7-10-5z" fill="#D9D9D9"/>
<path transform="translate(1066,500)" d="m0 0 4 4 5 8 4 9 7 12 6 12 7 9v7l-10 10-5 15-4 17 10 8 6 4 2 4-2 1-5-5-14-9-1-3 8-29 3-6 8-7 1-5-10-15-12-22-5-10-3-5z" fill="#CECECE"/>
<path transform="translate(888,142)" d="m0 0 4 2 7 8 20 13 16 13 9 7 34 28 10 8 22 18 1 2-4-1-13-11-10-8-12-9-13-10-10-7-3-5-13-11-16-12-3-2v-2l-6-2-8-5-9-9z" fill="#F3F3F3"/>
<path transform="translate(748,1285)" d="m0 0 1 2h2l3 9 3 5 4 15 5 21 6 15 8 16 8 15 9 10 12 13 10 10v2l10 3-4 3-5-3-18-18v-2h-2l-7-8-7-7-15-30-8-18-2-11-5-19-8-20z" fill="#EDEDED"/>
<path transform="translate(817,76)" d="m0 0h20l6 3 3 4 3 10 8 10 11 13 12 14 9 11 2 4 7 8 6 5 10 5-3 2v-2l-3 1-15-9-6-5 4-1-3-2v-3l-3-1-3-6-12-14-9-11v-2h-2l-10-13-4-8-3-7-1-3h-27l-6 2-5 1 1-3z" fill="#DCDCDC"/>
<path transform="translate(772,159)" d="m0 0h12l12 5 8 5-2 1-14-7-12-2 1 3 16 10 9 6 7 4 10 11 4 6-1 3-10 5-10 11-4 2-14 3-8 5-3 3-1 8h-1l-1-8 6-7 16-6 9-2 9-11 6-4h4l-5-9-8-8-21-13-10-6-5-6z" fill="#D8D8D8"/>
<path transform="translate(693,998)" d="m0 0h1v10l6 1 5 6 1 17-2 4h-6l-2-2-3-12-2-4 1 5 2 9 1 1 2 11 5 18 3 11v10l-5 10-1-3 4-9-1-9-15-55v-6h3l7 14 2 9 3-3 1-2v-9l-2-8-11-3 1-5z" fill="#EBEBEB"/>
<path transform="translate(945,925)" d="m0 0h3v7l-5 1h-7l-1 9h-7l-9-3-5 15-4 1h-7l6 10 12 11v4h-2l-7-8-5-4-5-8-7-14-3-3v-2l4 1 7 10 9-1 4-15 3-1 13 4 1-6 5-3h6z" fill="#E4E4E4"/>
<path transform="translate(1066,329)" d="m0 0h2l4 12 6 12 6 7 5 4 1 4-4 4-4-2-5-5-9-4h-3l5 5 6 5 1 6-17-17v-3l9 1 4 2 5-1-8-16-4-9h-7l1-4 2 2z" fill="#eee"/>
<path transform="translate(699,1115)" d="m0 0 2 2 3 19 3 13 8 20 5 13 8 20 15 40v9h-1l-3-12-19-49-14-36-4-15-3-17z" fill="#E3E3E3"/>
<path transform="translate(1833,1458)" d="m0 0 8 2 6-2 4 2 2 4v14h-4l-1-15-5-1-1 1-2 16-3-1-1-15-5-1-1 1-1 14-1 2-3-1v-11l1-8z" fill="#828282"/>
<path transform="translate(1035,1160)" d="m0 0 4 1 10 6 6 5-2 5-4 4-7 4v3l4 6 6 3 7-1 9-5 6-3h5l-1 5-3 1v-3l-16 9h-8l-8-5-6-8 2-4 11-7 1-2-4-4-9-5-3-3z" fill="#E1E1E1"/>
<path transform="translate(1964,1459)" d="m0 0h23l3 3 1 3v13l-2 1-2-1-1-14-1-2h-6l-1 16h-3l-1-14-1-2-5 1-2 16-3-1v-18z" fill="#828282"/>
<path transform="translate(711,100)" d="m0 0 6 2-1 7-1 8 2 9 4 3h6l2 1v7l-3-3v-2l-8-2-3-3-2-5v-18h-7l-3 5-2 11 1 9 5 10 5 8 3 2 9 1-3 3-7-1-5-4-10-18-3-6 2-4 5-18z" fill="#D2D2D2"/>
<path transform="translate(1332,796)" d="m0 0 7 6 9 9 5 8 1 9-6 3-5-1-7-7-7-8-3-2h-7l-4 5-1 5h7l4-3h6l3 4-7-1-6 3-7-1-2-2 1-8 6-5 9 1 7 5 8 10 2 2 7-1-2-8-6-8-12-13z" fill="#E3E3E3"/>
<path transform="translate(1242,657)" d="m0 0 4 2 4 7 4 12 1 6 2 1 1-3h2l-2 6-3 2-4-8-6-20-1-2v17l5 5 5 8 6 1 5-8 3 2 5 15-1 3-4-10-1-6h-2l-2 5-3 2-6-1-5-4-6-10-2-4v-16z" fill="#E9E9E9"/>
<path transform="translate(1226,582)" d="m0 0 4 1 3 3 1 6-4-5-1-2v7l3 9 10 2 3 5 6 27 9 33 1 6v8l-4 1-1-8 1-2-1-10-7-25-7-31-5-2-7-2-3-6-2-14z" fill="#DBDBDB"/>
<path transform="translate(922,187)" d="m0 0 9 3 20 8 11 8 6 4 1 4-9-1-13-4-21-9-12-4 4-1 16 5 18 8 9 2-11-8-12-7-11-3z" fill="#ECECEC"/>
<path transform="translate(1038,759)" d="m0 0 2 4v7l-5 20-4 7-8 1-2 9 6 30 1 3 3 1-3 1-4-3-3-16-2-11-1-2v-8l4-7h6l4-7 4-16z" fill="#ddd"/>
<path transform="translate(1371,903)" d="m0 0 4 5 1 1v6l-1 2h2l2-5 4 4 3 12 4-15 4-3 3 4 4 13 6 14 1 7-2-3-6-15-7-15-3 7-3 13h-3l-1-1-2-16-7 1-1-1v-7l-2-5z" fill="#eee"/>
<path transform="translate(809,173)" d="m0 0 9 3 19 5 10 9 4 4-2 6v5l2 3h7l15-4 25-10 3-1 13 1v1l-14 1-20 8-17 6-11 1-6-5v-7l2-5-9-8-5-3-20-6-5-3z" fill="#D4D4D4"/>
<path transform="translate(1096,869)" d="m0 0 3 1-1 17 3 49 2 25-2 4-3-24-2-30-1-23v-13z" fill="#D1D1D1"/>
<path transform="translate(1334,824)" d="m0 0 4 4 4 6 8 8 4 7v6l2-4 4 2 7 6 7 14 1 4v7l-1 5 1 1v6l-2 3h-2l1-8-1-17-5-12-6-5-3-2-2 5-4-2-1-7v-4l-7-9-7-7z" fill="#eee"/>
<path transform="translate(1255,921)" d="m0 0m-2 1h2l-1 3-5 3h-2l-2 6-8 1 1 13-4 8-5 4-2 1h-10l1 27-3-2v-27l13-2 6-7v-14l2-3 7-1 2-5 5-4z" fill="#CECECE"/>
<path transform="translate(793,263)" d="m0 0 2 4-1 23-4 16-10 28-5 17-5 12-9 7-8 4-2-1 9-6 7-4 8-20 5-18 8-21 3-12z" fill="#E2E2E2"/>
<path transform="translate(681,854)" d="m0 0h1v9l-2 3v17l2 12 2 16 6 45 2 13v11h-1l-14-102-2-9 1-5 3-1z" fill="#D6D6D6"/>
<path transform="translate(1878,1459)" d="m0 0h11l4 5v9l-2 4-4 2h-6l-1 6-4-1v-22zm4 2-2 1v12l1 2h5l4-5-1-7-3-3z" fill="#828282"/>
<path transform="translate(1384,864)" d="m0 0 3 4 6 28v9l-5 6-5-2-5-5v-32l-1-6 3 3 1 4 1 32 7 3 1-3v-9l-4-20-1-1z" fill="#DBDBDB"/>
<path transform="translate(1756,1452)" d="m0 0h8l6 4 2 4v10l-3 5-7 4h-7l-6-5-3-7 1-7 5-6zm1 2-5 3-3 5v6l4 6 4 3 5-1 6-4 2-7-2-7-6-4z" fill="#828282"/>
<path transform="translate(656,734)" d="m0 0 3 1 7 26 6 20 6 33 2 21 4 10v6l-2 2-1-10-3-6-1-4-1-18-8-39-6-19-4-16z" fill="#E3E3E3"/>
<path transform="translate(1028,1113)" d="m0 0 5 1 6 5 6 10 2 5-1 4h-2l1 5 2 2v5l-10 6-11 4-5 3h-4v-2l20-9 6-3-2-5-1-4 3-3-1-7-6-9-8-6z" fill="#E3E3E3"/>
<path transform="translate(728,93)" d="m0 0 2 1-3 3-1 6 5 8 5 12v2l9 2 12 6 9 7 11 7-1 2-12-7-10-8-13-6h-6l-3-5-4-12-8-11 5-5z" fill="#D9D9D9"/>
<path transform="translate(814,140)" d="m0 0 6 1 21 10 12 6 12 9 8 8 9 7 2 1 13 1-3 2h-10l-5-3-10-9-11-9-14-9-24-11-6-2z" fill="#D5D5D5"/>
<path transform="translate(1860,1459)" d="m0 0h8l3 3 1 3v11l-1 2-10 1-5-5 1-5 1-2h10l-2-5-5 1-3 2 1-5zm1 10-1 5 4 3 4-3-1-5z" fill="#828282"/>
<path transform="translate(1812,1458)" d="m0 0 6 1 3 3 1 7-2 1-10 1 3 4 6-1 3-1-1 4-4 2-7-1-4-4-1-6 3-7zm0 3-3 4 1 3h6l2-1-1-5z" fill="#828282"/>
<path transform="translate(1783,1451)" d="m0 0 4 2 6 19 4-9 4-11h3l-1 5-6 18-4 4-5-10-5-14z" fill="#828282"/>
<path transform="translate(888,142)" d="m0 0 4 2 7 8 20 13 16 13 9 7 8 7 2 5-5-2-3-5-13-11-16-12-3-2v-2l-6-2-8-5-9-9z" fill="#E7E7E7"/>
<path transform="translate(633,173)" d="m0 0 5 3 5 5 12 3 4 7-1 5-3 3-3 1h-12l-6-3-3-6 1-17zm1 3-1 13 2 6 2 2 4 1h11l4-4-1-7-4-3-12-1v-2h-2v-3h-2z" fill="#ddd"/>
<path transform="translate(953,871)" d="m0 0 1 3-6 10 2 9 5 10v8l-5 9-6 5-2-1 1-4 5-3 3-5v-10l-5-9-1-4v-7l6-9h2z" fill="#E5E5E5"/>
<path transform="translate(860,127)" d="m0 0 7 6 9 6 4 4 6 4 5 5 10 7 9 5v3h-5v-2l-6-2-6-3v-3l-16-13-11-9-6-6z" fill="#F9F9F9"/>
<path transform="translate(1950,1458)" d="m0 0 6 2 3 4v9l-4 5-7 1-5-5-1-2v-7l5-6zm-1 3-3 3-1 7 2 4 5 1 4-4v-7l-3-4z" fill="#828282"/>
<path transform="translate(1e3 726)" d="m0 0h4v2l-9 7-6 6-5 1-3-1-1 11-6 10-2 5h-3l1-4 3-6 4-7 2-10 9-3 8-8z" fill="#E7E7E7"/>
<path transform="translate(1072,1081)" d="m0 0 2 1-2 3-17 6-5 3h-2l-3 10-4 4-14 2 2 3h-3l-2-5 2-1 14-2 7-13 8-5 13-4z" fill="#DADADA"/>
<path transform="translate(706,558)" d="m0 0h2l-2 7-3 3-2 6-4 33-5 25-3 5h-2l-1 2 1-4 3-5 5-26 3-30 2-7 4-4z" fill="#D4D4D4"/>
<path transform="translate(1157,536)" d="m0 0h7l13 8h2l-1 3-5-2-5-4-4-2h-7l-5 4-1 4 5-2 5-4 5 1 8 10-3 1-6-7-3-1-6 4h-6l-2-4 3-5z" fill="#EAEAEA"/>
<path transform="translate(892,941)" d="m0 0 4 1 7 10h11v2l-4 1h-7l6 10 12 11v4h-2l-7-8-5-4-5-8-7-14-3-3z" fill="#E6E6E6"/>
<path transform="translate(874,126)" d="m0 0 4 2 11 13 2 4 7 8 6 5 10 5-3 2v-2l-3 1-15-9-6-5 4-1-3-2v-3l-3-1-3-6-8-10z" fill="#CECECE"/>
<path transform="translate(848,123)" d="m0 0 8 6 15 16 10 7 12 6v2l6 2 6 3-3 1-17-8-11-7-10-9-3-3v-2h-2l-7-8-4-4z" fill="#E2E2E2"/>
<path transform="translate(1900,1459)" d="m0 0h7l3 3-1 4-1-3-7-2v5l9 3 1 4-3 5-7 1-5-5 1-4 4 5 5 1 1-6-7-1-3-1-1-4 2-4z" fill="#828282"/>
<path transform="translate(956,1162)" d="m0 0 17 2h16l9-1h11l8-1 2 2-17 3-4-1-20 2-25-4z" fill="#CECECE"/>
<path transform="translate(1142,438)" d="m0 0 4 5 10 7 5 8 4 13 7 3 4 8 9 11-1 4-4-7-2-4h-2l-5-6v-3l-7-1-6-19-6-7-8-6-2-3z" fill="#DBDBDB"/>
<path transform="translate(748,78)" d="m0 0 17 1h25l7 1v7h-1v-5h-28l-19-1-7 3-10 9-2-1 8-8 7-5z" fill="#D2D2D2"/>
<path transform="translate(1930,1458)" d="m0 0 5 1 5 5v3h-2l-4-5-5 1-2 2v7l2 3h5l4-5h2l-1 5-5 4-7-1-4-5v-8l3-5z" fill="#828282"/>
<path transform="translate(921,977)" d="m0 0h1v6l10 7 6 6v5l-1 5 8 10v6h-2v-5h-2l-6-8-1-2v-11l-7-6-8-5z" fill="#DFDFDF"/>
<path transform="translate(676,336)" d="m0 0 10 2 16 7 11 7 11 11v1h-6l-9-4v-1h7l-7-7-17-9-11-4-5-1z" fill="#DEDEDE"/>
<path transform="translate(1074,1192)" d="m0 0 2 2-1 4-8 15-6 12-3 10h-2l1-9 4-10 9-16z" fill="#D6D6D6"/>
<path transform="translate(750,374)" d="m0 0 2 1-12 11h-2v2l-10 5h-2l2 7 1 9v23l-1 7h-1v-28l-2-10-2-5v-4l12-5 11-10z" fill="#D4D4D4"/>
<path transform="translate(1066,329)" d="m0 0h2l4 12 11 22 4 3v3l-4-1-4-4-5-2 4-3-8-16-4-9h-7l1-4 2 2z" fill="#B7B7B7"/>
<path transform="translate(1009,241)" d="m0 0 5 1 7 9 5 5 7 8-1 5-6-2-8-16-9-9z" fill="#D7D7D7"/>
<path transform="translate(1087,1041)" d="m0 0 3 1v10l-11 23-4 6-3-1 8-16 6-11z" fill="#DBDBDB"/>
<path transform="translate(682,695)" d="m0 0 1 2v6l7 7 5 10v6h-2v2l-7 3h-12l-7-3 2-1 13 2 7-2 3-2-1-7-6-10-6-7z" fill="#D4D4D4"/>
<path transform="translate(651,334)" d="m0 0h20l5 1v2l-13-1h-10l-3 3 1 3 8 2 9 2 6 3-1 2-12-4-13-3-2-3 1-5z" fill="#DCDCDC"/>
<path transform="translate(1195,971)" d="m0 0 3 3 6 15v2l8-2 3-3 2-3v7l-7 4h-7l-3-5-5-13z" fill="#E4E4E4"/>
<path transform="translate(674,601)" d="m0 0h2l-3 10-7 14-1 4-5 3 2-9 6-12z" fill="#FEFEFE"/>
<path transform="translate(693,1032)" d="m0 0 2 1 2 11 5 18 3 11v10l-5 10-1-3 4-9-1-9-9-32z" fill="#E1E1E1"/>
<path transform="translate(1046,288)" d="m0 0h2l12 24 3 9-16-4 2-2h6l1-4-4-10-6-11z" fill="#E2E2E2"/>
<path transform="translate(1357,828)" d="m0 0 3 4 4 12 8 14 5 6 1 6-4-4-10-15-4-9-4-13z" fill="#EAEAEA"/>
<path transform="translate(1088,1009)" d="m0 0h5l-3 3-2 1 1 8 2 11v9l-1 1-1 9h-1v-16l-4-23z" fill="#DBDBDB"/>
<path transform="translate(1232,953)" d="m0 0h2l-1 4-6 4h-10l1 27-3-2v-27l13-2z" fill="#D8D8D8"/>
<path transform="translate(1095,378)" d="m0 0 4 2 11 14 11 18v3l-6-8-10-16-6-6v-2l-6 4-3 3 2-6z" fill="#DBDBDB"/>
<path transform="translate(698,120)" d="m0 0h1v6h2l5 12 6 9 3 2 9 1-3 3-7-1-5-4-10-18-3-6z" fill="#ECECEC"/>
<path transform="translate(942,1017)" d="m0 0h1l1 6-4 5-12 6-3 2-13 2-1 4-1-5 3-2 12-3 6-4 7-3 3-1z" fill="#D5D5D5"/>
<path transform="translate(944,833)" d="m0 0 2 4 5 20 3 4 1 3v8l-3 1-1-11-4-6-4-18z" fill="#DBDBDB"/>
<path transform="translate(880,699)" d="m0 0 11 7 9 3 1 1v22h-1l-2-20-13-5-7-5v-2z" fill="#DEDEDE"/>
<path transform="translate(748,1285)" d="m0 0 1 2h2l3 9 3 5 4 15 3 12-1 4-5-15-4-15-5-10z" fill="#E1E1E1"/>
<path transform="translate(1334,824)" d="m0 0 4 4 4 6 8 8 4 7v6l2-1v5l-2 1-4-4v-5-4l-7-9-7-7z" fill="#E6E6E6"/>
<path transform="translate(1080,593)" d="m0 0 1 4-1 6 10 8 6 4 2 4-2 1-5-5-14-9-1-3 3-9z" fill="#D8D8D8"/>
<path transform="translate(1038,272)" d="m0 0 4 2 5 12v2h-2l-4-8-1-6h-2v3l-3 1 4 6v3l-5-1-3-2v-2h2v-6z" fill="#E5E5E5"/>
<path transform="translate(1377,866)" d="m0 0 3 3 1 4v32l-3-1v-32z" fill="#DADADA"/>
<path transform="translate(1074,373)" d="m0 0 2 1 1 6-6-1-16 6-15 3-3-1 3-2 18-4 14-5z" fill="#CECECE"/>
<path transform="translate(702,356)" d="m0 0h7l3 3h-6l10 11 6 9h-3v-2l-3-1-9-11-5-7z" fill="#DADADA"/>
<path transform="translate(777,335)" d="m0 0h2l-2 10-7 18-9 7-8 4-2-1 9-6 7-4 8-20z" fill="#ddd"/>
<path transform="translate(1028,1113)" d="m0 0 5 1 6 5 6 10 2 5-1 4h-2l-1 2v-3l-1-7-6-9-8-6z" fill="#E1E1E1"/>
<path transform="translate(1207,546)" d="m0 0m-2 1h2l1 11h-2v2l-3 1h-21l-7-4-3-4 4 2 9 4h14l6-2-2-9z" fill="#DCDCDC"/>
<path transform="translate(1099,927)" d="m0 0h1l3 29-1 9h-1l-3-24v-13z" fill="#D0D0D0"/>
<path transform="translate(1332,796)" d="m0 0 7 6 9 9 5 8 1 9-3 2h-6l3-2 4-1-2-8-6-8-12-13z" fill="#E3E3E3"/>
<path transform="translate(1048,737)" d="m0 0 5 1-1 4-7 8-3 6-1 7h-2v-8l3-7 6-8z" fill="#E6E6E6"/>
<path transform="translate(1347,1261)" d="m0 0 1 2-6 8-13 13-15 10-4 2-3-1 12-7 13-10 9-9z" fill="#DBDBDB"/>
<path transform="translate(1051,831)" d="m0 0 4 1 2 5 2 1-3 1-3-4-4 2-11 6h-7l-1-2 13-4z" fill="#E4E4E4"/>
<path transform="translate(972,766)" d="m0 0 2 2-6 8-2 1h-7l-3-2-8 7-3-2 5-4 4-4 4 1 6 1 5-5 3-1z" fill="#D9D9D9"/>
<path transform="translate(1290,720)" d="m0 0h2l1 7 8-1 2 5-3 8h-1v-10l-6 1-8-6z" fill="#D4D4D4"/>
<path transform="translate(1393,910)" d="m0 0 4 4 4 13 6 14 1 7-2-3-6-15-7-15h-2l-1 2 1-5z" fill="#E4E4E4"/>
<path transform="translate(1020,807)" d="m0 0h1l6 30 1 3 3 1-3 1-4-3-3-16-2-13z" fill="#D3D3D3"/>
<path transform="translate(1174,883)" d="m0 0 2 2 1 4v12l-4 17-2-2 1-8 2-8v-9l-1-6z" fill="#D1D1D1"/>
<path transform="translate(943,781)" d="m0 0 4 1-18 10-1 9-2-1-1-11z" fill="#E7E7E7"/>
<path transform="translate(729,1212)" d="m0 0 3 1 10 26 1 3v9h-1l-3-12-10-26z" fill="#EAEAEA"/>
<path transform="translate(1226,582)" d="m0 0 4 1 3 3 1 6-4-5-1-2v7l3 9 10 2v1h-10l-4-4-3-14z" fill="#E9E9E9"/>
<path transform="translate(1158,878)" d="m0 0 14 2 2 1v4l-4-2-10-2-8 3-6 3-2-2z" fill="#E0E0E0"/>
<path transform="translate(1074,1188)" d="m0 0h5l-1 5-3 1v-3l-14 8h-5v-2l12-6z" fill="#E2E2E2"/>
<path transform="translate(813,141)" d="m0 0 2 2 2 7 6 6v6l-3 3-6-2-2-2 2-1h5v-5l-5-5-1-2z" fill="#D2D2D2"/>
<path transform="translate(980,217)" d="m0 0 5 1 9 8 14 11 3 4-4-1-13-11-10-8z" fill="#EAEAEA"/>
<path transform="translate(817,76)" d="m0 0h20l4 2-4 1h-23l-6 2-5 1 1-3z" fill="#D1D1D1"/>
<path transform="translate(1758,1457)" d="m0 0 5 1 2 4-9-1 1 9 5-1 3-1-2 4-5 2-4-4-1-2v-7z" fill="#828282"/>
<path transform="translate(1035,1160)" d="m0 0 4 1 10 6 6 5-2 4-5-5-6-4-5-3z" fill="#E1E1E1"/>
<path transform="translate(1060,357)" d="m0 0 9 1 3 2-7 1 5 5 6 5 1 6-17-17z" fill="#E6E6E6"/>
<path transform="translate(824,100)" d="m0 0 5 1 8 7 15 16-1 2-9-8-7-8-5-5v-2l-6-2z" fill="#EFEFEF"/>
<path transform="translate(1064,826)" d="m0 0 16 1v1l-11 1-6-1v9l-2 3h-4v-2h2l1-10z" fill="#E3E3E3"/>
<path transform="translate(1248,669)" d="m0 0 3 1 3 8 1 6 2 1 1-3h2l-2 6-3 2-4-8z" fill="#F6F6F6"/>
<path transform="translate(792,220)" d="m0 0h8l-2 2-14 3-8 5-3 3-1 8h-1l-1-8 6-7z" fill="#D0D0D0"/>
<path transform="translate(908,1086)" d="m0 0h1v18l1 6 4 3-3 1-5-4v-23z" fill="#CECECE"/>
<path transform="translate(962,417)" d="m0 0 3 1v5l9 7 4 5v2l-3-1-4-5-9-5-1-8z" fill="#D3D3D3"/>
<path transform="translate(1143,886)" d="m0 0h3v2l-13 9-9 3-2-2 14-7z" fill="#E0E0E0"/>
<path transform="translate(676,808)" d="m0 0h1l3 27 4 10v6l-2 2-1-10-3-6-1-4z" fill="#D6D6D6"/>
<path transform="translate(912,1113)" d="m0 0h6l8 5 5 6v8h-1v-6h-2l-6-7-10-5z" fill="#E3E3E3"/>
<path transform="translate(1170,916)" d="m0 0h2v15l2 8-1 7h-1l-3-14v-12z" fill="#DADADA"/>
<path transform="translate(681,854)" d="m0 0h1v9l-2 3-1 17h-1l-3-14 1-5 3-1z" fill="#DADADA"/>
<path transform="translate(809,173)" d="m0 0 9 3 19 5 6 5-3 1-6-4-20-6-5-3z" fill="#D5D5D5"/>
<path transform="translate(1089,825)" d="m0 0h17l-4 2h-2l-1 3-1-3-13 2h-12v-1z" fill="#EAEAEA"/>
<path transform="translate(1035,732)" d="m0 0 6 1 9 3-4 2-5-2h-6l-3 5-5-2 2-2z" fill="#D7D7D7"/>
<path transform="translate(1242,657)" d="m0 0 4 2 4 7v3l-3-1-3-8v19l-2-1-1-3v-16z" fill="#DCDCDC"/>
<path transform="translate(847,112)" d="m0 0 4 2 15 16 5 6-4-2-13-12-7-8z" fill="#E0E0E0"/>
<path transform="translate(633,173)" d="m0 0 5 3v2h-3l-1 4v7l2 6 3 4-5-2-3-6 1-17z" fill="#F1F1F1"/>
<path transform="translate(1257,663)" d="m0 0 2 1 2 10v8l-4 1-1-8 1-2z" fill="#D7D7D7"/>
<path transform="translate(1237,582)" d="m0 0h2l2 10v5l-5-1-2-2 1-4 1 1z" fill="#D4D4D4"/>
<path transform="translate(1077,380)" d="m0 0 4 4-4 6-1 3h9l5-3-2 4-2 2h-7l-5-3 1-5 1-1z" fill="#E1E1E1"/>
<path transform="translate(822,201)" d="m0 0v3l-10 5-10 11-4-1 5-3 7-9 6-4z" fill="#D6D6D6"/>
<path transform="translate(952,902)" d="m0 0h1l1 11-5 8-5 4-2-1 1-4 5-3 3-5z" fill="#DFDFDF"/>
<path transform="translate(888,142)" d="m0 0 4 2 7 8 17 11-2 1-13-7-10-10z" fill="#FEFEFE"/>
<path transform="translate(688,1010)" d="m0 0 3 2-1 7 3 6v11l-2-4-4-15v-6z" fill="#F7F7F7"/>
<path transform="translate(665,630)" d="m0 0 10 3 1 4-7 15-4 1 3-5 4-7v-5l-7-5z" fill="#CDCDCD"/>
<path transform="translate(1185,497)" d="m0 0h1l-1 7-4 3 4 2 1 4-3-1v-2h-8l1-4 8-6z" fill="#E5E5E5"/>
<path transform="translate(1391,891)" d="m0 0h1l1 5v9l-5 6-5-2-4-3 1-2 9 4 1-3z" fill="#EBEBEB"/>
<path transform="translate(772,241)" d="m0 0 2 3 3 7 4 5 12 6-4 1-10-5-5-6-2-7z" fill="#CECECE"/>
<path transform="translate(860,127)" d="m0 0 7 6 9 6 4 4 5 3-2 1-5-2-14-12-4-4z" fill="#EDEDED"/>
<path transform="translate(763,1332)" d="m0 0 2 1 4 12 4 8v5l-3-4-7-16z" fill="#ECECEC"/>
<path transform="translate(929,1126)" d="m0 0h1l1 10-3 14-3 1 1-10 2-7z" fill="#D2D2D2"/>
<path transform="translate(1329,814)" d="m0 0 5 1 9 11 2 4 3 1-5-1-7-7-7-8z" fill="#eee"/>
<path transform="translate(982,748)" d="m0 0h1v6l-6 11-1 2h-3l1-4 3-6 4-7z" fill="#E9E9E9"/>
<path transform="translate(914,195)" d="m0 0 8 1 12 4 7 3 1 3-9-3-10-4-9-3z" fill="#D7D7D7"/>
<path transform="translate(803,181)" d="m0 0 4 2 6 5 8 10 1 4-2 1-5-9-8-8-4-3z" fill="#D9D9D9"/>
<path transform="translate(743,1246)" d="m0 0h1l1 6v19l-4-2-2-5 4-2z" fill="#DADADA"/>
<path transform="translate(909,1038)" d="m0 0h2v4h2l5 11 1 7h-3l-2-8-5-11z" fill="#E0E0E0"/>
<path transform="translate(773,1355)" d="m0 0 2 3 9 17 1 4h-2l-9-16z" fill="#E7E7E7"/>
<path transform="translate(1074,1192)" d="m0 0 2 2-1 4-7 13-2-2z" fill="#D4D4D4"/>
<path transform="translate(1372,875)" d="m0 0 3 3v6l-1 5 1 1v6l-2 3h-2l1-8z" fill="#E4E4E4"/>
<path transform="translate(718,526)" d="m0 0 2 1-4 2-1 3-5 4-2 5-1 11-2-3 2-13 6-7z" fill="#DADADA"/>
<path transform="translate(814,140)" d="m0 0 6 1 19 9v3l-21-10-4-1z" fill="#DCDCDC"/>
<path transform="translate(848,123)" d="m0 0 8 6 10 11-1 3-4-4v-2h-2l-7-8-4-4z" fill="#E4E4E4"/>
<path transform="translate(945,925)" d="m0 0h3v7l-5 1h-7l-1 3-1-4 4-2h6z" fill="#ddd"/>
<path transform="translate(1371,903)" d="m0 0 4 5 1 1v6l-1 2 6-1 1 4-1-2-7 1-1-1v-7l-2-5z" fill="#DCDCDC"/>
<path transform="translate(1038,759)" d="m0 0 2 4v7l-3 13-2-3z" fill="#D5D5D5"/>
<path transform="translate(693,1032)" d="m0 0 2 1 2 11 3 11v3h-2l-5-18z" fill="#D9D9D9"/>
<path transform="translate(1046,317)" d="m0 0 4 4 8 3 2 3-2 3-3-4-9-3-1-5z" fill="#E9E9E9"/>
<path transform="translate(728,93)" d="m0 0 2 1-3 3-1 6 2 5-3-1-5-8 5-4z" fill="#ddd"/>
<path transform="translate(1041,1188)" d="m0 0 4 5 7 4 7 2v1h-8l-8-5-3-3z" fill="#DCDCDC"/>
<path transform="translate(1066,329)" d="m0 0h2l5 15-3-1-4-9h-7l1-4 2 2z" fill="#DFDFDF"/>
<path transform="translate(714,117)" d="m0 0h1l2 9 4 3h6l2 1v7l-3-3v-2l-8-2-3-3-1-2z" fill="#DBDBDB"/>
<path transform="translate(935,1006)" d="m0 0h2l8 10v6h-2v-5h-2l-6-8z" fill="#E6E6E6"/>
<path transform="translate(901,711)" d="m0 0h1v30l3 1-4 1-1-1z" fill="#D1D1D1"/>
<path transform="translate(691,726)" d="m0 0h2v2l-7 3h-12l-7-3 2-1 13 2 7-2z" fill="#DBDBDB"/>
<path transform="translate(1176,524)" d="m0 0h1v7l3 6v6l-3 2-2-2 2-1-2-8v-9z" fill="#E0E0E0"/>
<path transform="translate(922,187)" d="m0 0 9 3 17 7-4 1-9-4-9-3z" fill="#D3D3D3"/>
<path transform="translate(928,799)" d="m0 0 2 4 5 3 3 6-2 4-4-8-5-5z" fill="#E0E0E0"/>
<path transform="translate(663,629)" d="m0 0 2 1-5 6-8 10-5 3-1-2 7-5 6-10z" fill="#ddd"/>
<path transform="translate(748,78)" d="m0 0 3 1h-2v2l-7 3-10 9-2-1 8-8 7-5z" fill="#E2E2E2"/>
<path transform="translate(649,678)" d="m0 0 1 2-2 11 1 8h-2l-2-17z" fill="#D8D8D8"/>
<path transform="translate(731,498)" d="m0 0h1l-1 7-5 14-3 2 3-10z" fill="#E4E4E4"/>
<path transform="translate(873,175)" d="m0 0 4 2 5 4 2 1 13 1-3 2h-10l-5-3-6-5z" fill="#DADADA"/>
<path transform="translate(1103 1e3)" d="m0 0 2 3-5 4-5 3-5-1 12-8z" fill="#D2D2D2"/>
<path transform="translate(1380,889)" d="m0 0h1v16l-3-1v-11z" fill="#CECECE"/>
<path transform="translate(1084,607)" d="m0 0 11 7 3 4v2h-2l-5-5-7-4z" fill="#D6D6D6"/>
<path transform="translate(1160,536)" d="m0 0 6 1 11 7h2l-1 3-5-2-5-4-9-3z" fill="#F1F1F1"/>
<path transform="translate(1046,288)" d="m0 0h2l10 20h-3l-8-16z" fill="#DADADA"/>
<path transform="translate(861,110)" d="m0 0h2l9 11 3 3v2l-4-2-7-8-3-4z" fill="#D8D8D8"/>
<path transform="translate(1072,1081)" d="m0 0 2 1-2 3-12 4-5-1 3-2 12-3z" fill="#D1D1D1"/>
<path transform="translate(657,693)" d="m0 0h2l3 7 5 6-2 6-2 2 1-7-6-9z" fill="#CECECE"/>
<path transform="translate(1126,418)" d="m0 0 5 1 6 5 5 11-1 3-5-10-3-5-7-4z" fill="#E0E0E0"/>
<path transform="translate(693,998)" d="m0 0h1v10l6 1 1 2-7-1-4-1 1-5z" fill="#DADADA"/>
<path transform="translate(1051,831)" d="m0 0 4 1 2 5 2 1-3 1-3-4-4 2h-3l2-4z" fill="#E5E5E5"/>
<path transform="translate(1142,438)" d="m0 0 4 5 10 7 3 5-4-2-11-9-2-3z" fill="#DEDEDE"/>
<path transform="translate(1353,849)" d="m0 0 1 3v3l2-1v5l-2 1-4-4v-5z" fill="#E8E8E8"/>
<path transform="translate(1323,783)" d="m0 0 4 1 5 10-1 2-6-10-8-1v-1z" fill="#DADADA"/>
<path transform="translate(943,781)" d="m0 0 4 1-13 7-4-2z" fill="#E3E3E3"/>
<path transform="translate(1090,1318)" d="m0 0m-2 1h2l-1 3-9 4h-2l-1 3-1-4z" fill="#CFCFCF"/>
<path transform="translate(1030,1155)" d="m0 0 3 1-4 3-8 4h-4v-2z" fill="#DEDEDE"/>
<path transform="translate(1041,1125)" d="m0 0h2l4 9-1 4h-2l-1 2v-3l-1-7z" fill="#E0E0E0"/>
<path transform="translate(1099,858)" d="m0 0 5 5v3l-3-1-3 6h-1v-7z" fill="#DCDCDC"/>
<path transform="translate(703,102)" d="m0 0h3l-2 5-3 13-1 6h-1v-9z" fill="#DCDCDC"/>
<path transform="translate(801,81)" d="m0 0h2l2 7 3 2v2l-5-1-3-3z" fill="#F1F1F1"/>
<path transform="translate(797,81)" d="m0 0h1l1 12 6 3v2l-6-1-2-2-1-7z" fill="#EBEBEB"/>
<path transform="translate(916,936)" d="m0 0 2 4-2 9-1 3-3-1z" fill="#D6D6D6"/>
<path transform="translate(1098,912)" d="m0 0h1l1 15h-3v-14z" fill="#CFCFCF"/>
<path transform="translate(944,833)" d="m0 0 2 4 2 12-2 2-3-13z" fill="#D2D2D2"/>
<path transform="translate(921,771)" d="m0 0h1l2 15 1 4-4-4-1-2v-9z" fill="#CECECE"/>
<path transform="translate(1158,455)" d="m0 0 3 3 4 13 1 5h-2l-6-19z" fill="#D3D3D3"/>
<path transform="translate(760,137)" d="m0 0 4 2 13 8-1 2-12-7-4-3z" fill="#DBDBDB"/>
<path transform="translate(835,101)" d="m0 0 6 1 7 9h-3l-7-7z" fill="#EBEBEB"/>
<path transform="translate(814,1412)" d="m0 0 5 4v2l10 3-4 3-5-3-6-6z" fill="#E5E5E5"/>
<path transform="translate(802,1401)" d="m0 0 4 2 8 8-1 3-11-11z" fill="#eee"/>
<path transform="translate(1169,1367)" d="m0 0 5 1 1 4 3 1 6-1-2 2-7 2-2-6-5 1z" fill="#DFDFDF"/>
<path transform="translate(1273,704)" d="m0 0 5 5 5 7 2 7-3-3-7-11z" fill="#ddd"/>
<path transform="translate(706,558)" d="m0 0h2l-2 7-3 3-3 5-1-4 5-6z" fill="#E1E1E1"/>
<path transform="translate(1216,983)" d="m0 0h1v7l-5 3-8-1v-1l8-2 3-3z" fill="#DEDEDE"/>
<path transform="translate(1155,879)" d="m0 0 5 1-14 7-2-2z" fill="#D6D6D6"/>
<path transform="translate(1303,745)" d="m0 0 6 4 3 3-1 4-4 4 1-9-5-4z" fill="#D9D9D9"/>
<path transform="translate(1290,720)" d="m0 0h2l1 8-5-1-3-4z" fill="#F4F4F4"/>
<path transform="translate(709,359)" d="m0 0h6v2h3l2-2 4 5h-6l-9-4z" fill="#F6F6F6"/>
<path transform="translate(1089,1031)" d="m0 0 2 1v9l-1 1-1 9h-1v-13z" fill="#F2F2F2"/>
<path transform="translate(918,1034)" d="m0 0 7 1v1l-13 2-1 4-1-5 3-2z" fill="#CFCFCF"/>
<path transform="translate(1332,796)" d="m0 0 7 6 6 6-1 3-12-13z" fill="#DCDCDC"/>
<path transform="translate(898,710)" d="m0 0h3v22h-1z" fill="#F0F0F0"/>
<path transform="translate(711,147)" d="m0 0 9 3 4 1-3 2-7-1-3-2z" fill="#DEDEDE"/>
<path transform="translate(1070,1315)" d="m0 0h2l4 7 1 6h-2l-5-10z" fill="#E0E0E0"/>
<path transform="translate(748,1285)" d="m0 0 1 2h2l3 9 1 6-3-4-4-10z" fill="#E7E7E7"/>
<path transform="translate(1047,1167)" d="m0 0 5 2 3 3-2 4-8-8z" fill="#D8D8D8"/>
<path transform="translate(940,1160)" d="m0 0h9l7 2v1h-9l-7-2z" fill="#DEDEDE"/>
<path transform="translate(1101,947)" d="m0 0h1l1 14-2 4-1-6v-9z" fill="#D7D7D7"/>
<path transform="translate(953,871)" d="m0 0 1 3-6 10h-2l1-5 4-6h2z" fill="#E6E6E6"/>
<path transform="translate(1122,821)" d="m0 0 7 1 6 2 1 3-5-1-4-2-6-1z" fill="#E9E9E9"/>
<path transform="translate(1041,749)" d="m0 0 3 1-2 6-1 7h-2v-8z" fill="#DEDEDE"/>
<path transform="translate(1163,541)" d="m0 0 5 3 6 9h-3l-7-9-2-2z" fill="#F3F3F3"/>
<path transform="translate(1040,273)" d="m0 0 3 3 4 10v2h-2l-4-8z" fill="#EDEDED"/>
<path transform="translate(1016,261)" d="m0 0 6 1 6 5 3 3-5-1-6-5z" fill="#F3F3F3"/>
<path transform="translate(914,164)" d="m0 0 5 1 10 8-3 1-12-9z" fill="#EAEAEA"/>
<path transform="translate(907,1442)" d="m0 0 4 2 7 9-3 1-3-3-4-6-2-2z" fill="#E2E2E2"/>
<path transform="translate(935,994)" d="m0 0 3 2v5l-3 6h-1v-12z" fill="#CECECE"/>
<path transform="translate(1216,972)" d="m0 0h1l1 16-3-2v-13z" fill="#CECECE"/>
<path transform="translate(945,882)" d="m0 0 2 2 3 11-2 2-3-8z" fill="#DADADA"/>
<path transform="translate(1020,807)" d="m0 0h1l2 8v9l-2-1-2-13z" fill="#D7D7D7"/>
<path transform="translate(662,714)" d="m0 0 1 2-2 4 6 7-5-2-4-5 2-5z" fill="#D5D5D5"/>
<path transform="translate(1244,678)" d="m0 0 3 1 6 11-4-1-5-8z" fill="#F0F0F0"/>
<path transform="translate(1067,365)" d="m0 0 4 2 5 4 1 6-10-10z" fill="#F3F3F3"/>
<path transform="translate(709,351)" d="m0 0 4 1 6 6-1 4-3-2v-2z" fill="#D7D7D7"/>
<path transform="translate(847,204)" d="m0 0 4 4h11l-1 2-9 1-5-4z" fill="#E3E3E3"/>
<path transform="translate(726,148)" d="m0 0 6 1 2 1h9l2 2-1 1h-8l-10-4z" fill="#CFCFCF"/>
<path transform="translate(1026,1107)" d="m0 0h7l3 2-9 1 2 3h-3l-2-5z" fill="#D1D1D1"/>
<path transform="translate(1187,962)" d="m0 0 5 1 4 6-2 4-5-9z" fill="#DFDFDF"/>
<path transform="translate(1115,892)" d="m0 0h2l4 6 3 2-5 1-4-6z" fill="#E7E7E7"/>
<path transform="translate(681,854)" d="m0 0h1v9l-2 3h-3l-1 3-1-4 4-2z" fill="#E4E4E4"/>
<path transform="translate(1357,817)" d="m0 0 5 3 3 7-4-2-4-5z" fill="#FEFEFE"/>
<path transform="translate(1035,732)" d="m0 0 6 1 9 3-4 2-6-3-5-1z" fill="#DEDEDE"/>
<path transform="translate(945,187)" d="m0 0 4 2 5 6v2l-5-2-3-5z" fill="#E1E1E1"/>
<path transform="translate(790,173)" d="m0 0 10 5 3 3-1 2-12-8z" fill="#D1D1D1"/>
<path transform="translate(777,147)" d="m0 0 8 4 7 1-2 2-7-1-6-4z" fill="#C9C9C9"/>
<path transform="translate(1391,915)" d="m0 0 1 4-2 3-2 11h-1v-10z" fill="#E0E0E0"/>
<path transform="translate(1080,357)" d="m0 0 8 6v3l-5-2-3-4z" fill="#F7F7F7"/>
<path transform="translate(776,226)" d="m0 0h2l-2 4-3 3-1 8h-1l-1-8z" fill="#D2D2D2"/>
<path transform="translate(638,197)" d="m0 0 14 1v2h-12z" fill="#CFCFCF"/>
<path transform="translate(830,180)" d="m0 0 7 1 6 5-3 1-6-4-4-1z" fill="#DEDEDE"/>
<path transform="translate(808,91)" d="m0 0 12 2 4 2h-8l-8-2z" fill="#D9D9D9"/>
<path transform="translate(738,1235)" d="m0 0 3 1 2 6v9h-1l-3-12z" fill="#ECECEC"/>
<path transform="translate(1063,1194)" d="m0 0h4v2l-6 3h-5v-2z" fill="#E7E7E7"/>
<path transform="translate(892,941)" d="m0 0 4 1 4 7-2 2-6-8z" fill="#E0E0E0"/>
<path transform="translate(1357,828)" d="m0 0 3 4 1 9-2-1-3-11z" fill="#F3F3F3"/>
<path transform="translate(984,739)" d="m0 0h5l-3 2-2 11-2-4v-6z" fill="#DADADA"/>
<path transform="translate(926,1147)" d="m0 0 2 3 1 5 2 2-3 1-3-2z" fill="#D6D6D6"/>
<path transform="translate(1087,1021)" d="m0 0h2l1 10-2 4-1-5z" fill="#DFDFDF"/>
<path transform="translate(1376,853)" d="m0 0 4 2 4 7-1 3-7-10z" fill="#D5D5D5"/>
<path transform="translate(1064,826)" d="m0 0 16 1v1l-11 1-6-1z" fill="#CECECE"/>
<path transform="translate(637,178)" d="m0 0 8 4 6 1v1h-8l-4-1v-2h-2z" fill="#D6D6D6"/>
<path transform="translate(733,140)" d="m0 0 6 2 6 4 1 4-9-6z" fill="#D6D6D6"/>
<path transform="translate(1066,1208)" d="m0 0m-1 1 2 1-1 4-2 4-3 1 1-5z" fill="#DEDEDE"/>
<path transform="translate(673,639)" d="m0 0 1 3-5 10-4 1 3-5z" fill="#CFCFCF"/>
<path transform="translate(726,439)" d="m0 0h2l3 9v3h-2l-3-8z" fill="#D7D7D7"/>
<path transform="translate(1e3 232)" d="m0 0 4 2 7 6-3 1-8-7z" fill="#EFEFEF"/>
<path transform="translate(898,184)" d="m0 0h11l-2 1v2l-6 1z" fill="#D3D3D3"/>
<path transform="translate(1916,1474)" d="m0 0 3 1-1 4-3-2z" fill="#828282"/>
</svg>
